<?xml version="1.0" encoding="UTF-8"?>
<svg width="24px" height="24px" viewBox="0 0 24 24" version="1.1" xmlns="http://www.w3.org/2000/svg">
    <g stroke="none" stroke-width="1" fill="none" fill-rule="evenodd">
        <path d="M12,1.5 C17.2467051,1.5 21.5,5.75329488 21.5,11 C21.5,16.2467051 17.2467051,20.5 12,20.5 C6.75329488,20.5 2.5,16.2467051 2.5,11 C2.5,5.75329488 6.75329488,1.5 12,1.5 Z M12,3 C7.58172178,3 4,6.58172178 4,11 C4,15.4182782 7.58172178,19 12,19 C16.4182782,19 20,15.4182782 20,11 C20,6.58172178 16.4182782,3 12,3 Z M12,14.5 C12.5522847,14.5 13,14.9477153 13,15.5 C13,16.0522847 12.5522847,16.5 12,16.5 C11.4477153,16.5 11,16.0522847 11,15.5 C11,14.9477153 11.4477153,14.5 12,14.5 Z M12,6.5 C12.5522847,6.5 13,6.94771525 13,7.5 L13,12 C13,12.5522847 12.5522847,13 12,13 C11.4477153,13 11,12.5522847 11,12 L11,7.5 C11,6.94771525 11.4477153,6.5 12,6.5 Z" fill="#FF6B6B"></path>
    </g>
</svg>
